<svg xmlns="http://www.w3.org/2000/svg" viewBox="0 0 11.9 14.9" style="enable-background:new 0 0 11.9 14.9" xml:space="preserve"><path d="M10.4 5.1v7.7c0 .3-.3.6-.6.6H2c-.3 0-.6-.3-.6-.6V1.9c0-.3.3-.6.6-.6h4.7v3.2c0 .3.3.6.6.6h3.1zM6 7.9c.1-.4.3-1.1.1-1.5-.1-.7-1-.6-1.1-.2-.1.5 0 1.1.2 1.8-.3.6-.7 1.5-1 2-.6.3-1.7 1-1.3 1.6.1.2.4.2.5.2.4 0 .8-.4 1.4-1.4.6-.2 1.3-.4 1.9-.5.5.3 1.1.5 1.5.5.7 0 .7-.8.5-1-.3-.4-1.2-.3-1.7-.2-.4-.3-.7-.7-1-1.3zm-1.8 2.6c-.5.8-.8 1-.8.9.2-.4.7-.8.8-.9zm2.2-1.1c-.5.2-1 .4-1.4.6.3-.5.5-1 .7-1.5.2.4.4.7.7.9zm-.8-3.1c.2 0 .2.9 0 1.1V6.3zm4.8-2.1v.1h-3v-3h.1c.2 0 .3.1.4.2l2.3 2.3c.1.1.2.3.2.4zM7.5 9.6c.9-.1 1.1.1 1 .2 0 0-.1.2-1-.2z" style="fill:#fff"/></svg>