<?xml version="1.0" standalone="no"?>
<!DOCTYPE svg PUBLIC "-//W3C//DTD SVG 20010904//EN"
 "http://www.w3.org/TR/2001/REC-SVG-20010904/DTD/svg10.dtd">
<svg version="1.0" xmlns="http://www.w3.org/2000/svg"
 width="186.000000pt" height="145.000000pt" viewBox="0 0 186.000000 145.000000"
 preserveAspectRatio="xMidYMid meet">
<metadata>
Created by potrace 1.16, written by Peter Selinger 2001-2019
</metadata>
<g transform="translate(0.000000,145.000000) scale(0.100000,-0.100000)"
fill="#000000" stroke="none">
<path d="M863 1412 c-61 -33 -833 -675 -833 -693 0 -22 96 -139 113 -139 7 0
182 139 388 310 235 195 382 309 396 310 14 0 125 -85 315 -242 439 -363 458
-378 473 -378 7 0 37 30 66 66 41 52 50 70 43 83 -17 26 -806 672 -841 687
-42 18 -81 17 -120 -4z"/>
<path d="M618 832 l-287 -237 -1 -267 c0 -229 2 -269 16 -282 13 -13 46 -16
209 -16 189 0 194 1 209 22 13 18 16 54 16 188 0 116 4 170 12 178 8 8 53 12
134 12 98 0 126 -3 138 -16 13 -13 16 -44 16 -184 0 -140 3 -171 16 -184 13
-13 46 -16 209 -16 193 0 195 0 210 24 13 19 15 62 13 281 l-3 259 -288 238
c-186 154 -296 238 -310 238 -14 -1 -131 -91 -309 -238z"/>
</g>
</svg>
