<?xml version="1.0" standalone="no"?>
<!DOCTYPE svg PUBLIC "-//W3C//DTD SVG 20010904//EN"
 "http://www.w3.org/TR/2001/REC-SVG-20010904/DTD/svg10.dtd">
<svg version="1.0" xmlns="http://www.w3.org/2000/svg"
 width="144.000000pt" height="162.000000pt" viewBox="0 0 144.000000 162.000000"
 preserveAspectRatio="xMidYMid meet">
<metadata>
Created by potrace 1.16, written by Peter Selinger 2001-2019
</metadata>
<g transform="translate(0.000000,162.000000) scale(0.100000,-0.100000)"
fill="#000000" stroke="none">
<path d="M625 1596 c-221 -55 -352 -280 -289 -497 84 -287 450 -382 660 -171
226 228 109 612 -206 672 -66 13 -102 12 -165 -4z m199 -107 c68 -25 139 -92
169 -157 15 -34 21 -67 21 -122 0 -93 -24 -151 -89 -214 -123 -120 -314 -113
-430 16 -98 109 -101 279 -8 388 88 102 214 136 337 89z"/>
<path d="M350 699 c-70 -14 -148 -57 -206 -115 -98 -98 -128 -190 -122 -371 3
-125 14 -150 78 -185 33 -17 65 -18 627 -16 580 3 592 3 619 24 54 40 67 68
72 151 9 169 -28 292 -118 387 -66 70 -147 113 -241 127 -68 10 -82 9 -176
-15 -126 -32 -199 -33 -328 -1 -106 26 -133 28 -205 14z m180 -109 c126 -33
210 -35 325 -9 185 43 272 27 366 -65 67 -66 92 -131 97 -259 4 -93 2 -110
-13 -127 -18 -19 -34 -20 -590 -20 -493 0 -574 2 -585 15 -8 10 -11 50 -8 137
3 114 5 127 33 177 54 97 164 169 260 170 22 0 74 -8 115 -19z"/>
</g>
</svg>
